<svg xmlns="http://www.w3.org/2000/svg" xmlns:xlink="http://www.w3.org/1999/xlink" width="500" zoomAndPan="magnify" viewBox="0 0 375 374.999991" height="500" preserveAspectRatio="xMidYMid meet" version="1.0"><defs><clipPath id="2a28b0009a"><path d="M 49 49 L 375 49 L 375 374.25 L 49 374.25 Z M 49 49 " clip-rule="nonzero"/></clipPath></defs><g clip-path="url(#2a28b0009a)"><path fill="#c561f6" d="M 334.617188 374.050781 L 88.460938 374.050781 C 66.347656 374.050781 49.039062 356.742188 49.039062 334.628906 L 49.039062 88.472656 C 49.039062 66.359375 66.347656 49.050781 88.460938 49.050781 L 335.578125 49.050781 C 357.691406 49.050781 375 66.359375 375 88.472656 L 375 335.589844 C 374.039062 356.742188 356.730469 374.050781 334.617188 374.050781 Z M 334.617188 374.050781 " fill-opacity="1" fill-rule="nonzero"/></g><path stroke-linecap="round" transform="matrix(9.615384, 0, 0, 9.615384, -57.692303, -57.680291)" fill="none" stroke-linejoin="round" d="M 40.499971 22.100064 L 40.499971 36.500003 C 40.499971 38.699847 38.699878 40.499941 36.500034 40.499941 L 11.499813 40.499941 C 9.299969 40.499941 7.499875 38.699847 7.499875 36.500003 L 7.499875 33.000159 " stroke="#18193f" stroke-width="3" stroke-opacity="1" stroke-miterlimit="4"/><path stroke-linecap="round" transform="matrix(9.615384, 0, 0, 9.615384, -57.692303, -57.680291)" fill="none" stroke-linejoin="round" d="M 7.499875 26.700034 L 7.499875 11.500189 C 7.499875 9.299938 9.299969 7.499845 11.499813 7.499845 L 36.500034 7.499845 C 38.699878 7.499845 40.499971 9.299938 40.499971 11.500189 L 40.499971 16.39997 " stroke="#18193f" stroke-width="3" stroke-opacity="1" stroke-miterlimit="4"/><path stroke-linecap="butt" transform="matrix(9.615384, 0, 0, 9.615384, -57.692303, -57.680291)" fill="none" stroke-linejoin="round" d="M 40.499971 13.500158 L 7.499875 13.500158 " stroke="#18193f" stroke-width="3" stroke-opacity="1" stroke-miterlimit="4"/><path stroke-linecap="round" transform="matrix(9.615384, 0, 0, 9.615384, -57.692303, -57.680291)" fill="none" stroke-linejoin="round" d="M 17.500126 23.500002 L 21.500064 27.49994 L 17.500126 31.499878 " stroke="#18193f" stroke-width="3" stroke-opacity="1" stroke-miterlimit="4"/><path stroke-linecap="round" transform="matrix(9.615384, 0, 0, 9.615384, -57.692303, -57.680291)" fill="none" stroke-linejoin="round" d="M 25.500002 31.499878 L 31.499908 31.499878 " stroke="#18193f" stroke-width="3" stroke-opacity="1" stroke-miterlimit="4"/></svg>